<mxfile host="app.diagrams.net" modified="2023-08-15T02:56:12.344Z" agent="Mozilla/5.0 (Windows NT 10.0; Win64; x64) AppleWebKit/537.36 (KHTML, like Gecko) Chrome/115.0.0.0 Safari/537.36" etag="b28Zeb_vbLrl6KnIDT7X" version="21.6.8" type="github">
  <diagram name="Página-1" id="mwO9tdZdLTG_nOb03kl9">
    <mxGraphModel dx="400" dy="222" grid="1" gridSize="10" guides="1" tooltips="1" connect="1" arrows="1" fold="1" page="1" pageScale="1" pageWidth="827" pageHeight="1169" math="0" shadow="0">
      <root>
        <mxCell id="0" />
        <mxCell id="1" parent="0" />
        <mxCell id="H2MEBsb1DBV1hN3i80CE-1" value="" style="whiteSpace=wrap;html=1;aspect=fixed;" vertex="1" parent="1">
          <mxGeometry x="100" y="140" width="350" height="350" as="geometry" />
        </mxCell>
        <mxCell id="H2MEBsb1DBV1hN3i80CE-2" value="Ant&lt;br&gt;&lt;br&gt;&lt;div style=&quot;text-align: left;&quot;&gt;&lt;span style=&quot;background-color: initial;&quot;&gt;View(Form)&lt;/span&gt;&lt;/div&gt;&lt;div style=&quot;text-align: left;&quot;&gt;&lt;span style=&quot;background-color: initial;&quot;&gt;Controller(Lógica)&lt;/span&gt;&lt;/div&gt;&lt;div style=&quot;text-align: left;&quot;&gt;&lt;span style=&quot;background-color: initial;&quot;&gt;Modelo(Class)&lt;/span&gt;&lt;/div&gt;&lt;div style=&quot;text-align: left;&quot;&gt;&lt;span style=&quot;background-color: initial;&quot;&gt;Conexion(POO)&lt;/span&gt;&lt;/div&gt;" style="text;html=1;strokeColor=none;fillColor=#2B8EFF;align=center;verticalAlign=middle;whiteSpace=wrap;rounded=0;" vertex="1" parent="1">
          <mxGeometry x="120" y="220" width="110" height="90" as="geometry" />
        </mxCell>
        <mxCell id="H2MEBsb1DBV1hN3i80CE-3" value="Modelo&lt;br&gt;Vista&lt;br&gt;Controlador" style="text;html=1;strokeColor=none;fillColor=none;align=center;verticalAlign=middle;whiteSpace=wrap;rounded=0;" vertex="1" parent="1">
          <mxGeometry x="120" y="160" width="70" height="40" as="geometry" />
        </mxCell>
        <mxCell id="H2MEBsb1DBV1hN3i80CE-4" value="Mysql" style="shape=cylinder3;whiteSpace=wrap;html=1;boundedLbl=1;backgroundOutline=1;size=15;" vertex="1" parent="1">
          <mxGeometry x="240" y="215" width="50" height="55" as="geometry" />
        </mxCell>
        <mxCell id="H2MEBsb1DBV1hN3i80CE-5" value="MongoDB" style="shape=cylinder3;whiteSpace=wrap;html=1;boundedLbl=1;backgroundOutline=1;size=15;" vertex="1" parent="1">
          <mxGeometry x="240" y="280" width="50" height="55" as="geometry" />
        </mxCell>
        <mxCell id="H2MEBsb1DBV1hN3i80CE-7" value="PHP&lt;br&gt;&lt;br&gt;&lt;div style=&quot;text-align: left;&quot;&gt;&lt;span style=&quot;background-color: initial;&quot;&gt;View(html)&lt;/span&gt;&lt;/div&gt;&lt;div style=&quot;text-align: left;&quot;&gt;&lt;span style=&quot;background-color: initial;&quot;&gt;js(transferencia)&lt;/span&gt;&lt;/div&gt;&lt;div style=&quot;text-align: left;&quot;&gt;&lt;span style=&quot;background-color: initial;&quot;&gt;Controller(Lógica)&lt;/span&gt;&lt;/div&gt;&lt;div style=&quot;text-align: left;&quot;&gt;&lt;span style=&quot;background-color: initial;&quot;&gt;Modelo(Class)&lt;/span&gt;&lt;/div&gt;&lt;div style=&quot;text-align: left;&quot;&gt;&lt;span style=&quot;background-color: initial;&quot;&gt;Conexion(POO)&lt;/span&gt;&lt;/div&gt;&lt;div style=&quot;text-align: left;&quot;&gt;&lt;span style=&quot;background-color: initial;&quot;&gt;Assets&lt;/span&gt;&lt;/div&gt;" style="text;html=1;strokeColor=none;fillColor=#2B8EFF;align=center;verticalAlign=middle;whiteSpace=wrap;rounded=0;" vertex="1" parent="1">
          <mxGeometry x="110" y="360" width="110" height="120" as="geometry" />
        </mxCell>
        <mxCell id="H2MEBsb1DBV1hN3i80CE-8" value="" style="rounded=0;whiteSpace=wrap;html=1;" vertex="1" parent="1">
          <mxGeometry x="540" y="130" width="260" height="340" as="geometry" />
        </mxCell>
        <mxCell id="H2MEBsb1DBV1hN3i80CE-9" value="MVC" style="text;html=1;strokeColor=none;fillColor=none;align=center;verticalAlign=middle;whiteSpace=wrap;rounded=0;" vertex="1" parent="1">
          <mxGeometry x="630" y="160" width="60" height="30" as="geometry" />
        </mxCell>
        <mxCell id="H2MEBsb1DBV1hN3i80CE-10" value="API" style="text;html=1;strokeColor=none;fillColor=#68FF57;align=center;verticalAlign=middle;whiteSpace=wrap;rounded=0;" vertex="1" parent="1">
          <mxGeometry x="630" y="240" width="60" height="30" as="geometry" />
        </mxCell>
        <mxCell id="H2MEBsb1DBV1hN3i80CE-11" value="BACKEND[port]&lt;br&gt;&lt;br&gt;Modelo&lt;br&gt;Service&lt;br&gt;Controller" style="text;html=1;strokeColor=none;fillColor=none;align=center;verticalAlign=middle;whiteSpace=wrap;rounded=0;" vertex="1" parent="1">
          <mxGeometry x="550" y="240" width="70" height="80" as="geometry" />
        </mxCell>
        <mxCell id="H2MEBsb1DBV1hN3i80CE-12" value="FRONTEND[port]&lt;br&gt;&lt;br&gt;View&lt;br&gt;Service" style="text;html=1;strokeColor=none;fillColor=none;align=center;verticalAlign=middle;whiteSpace=wrap;rounded=0;" vertex="1" parent="1">
          <mxGeometry x="700" y="240" width="60" height="80" as="geometry" />
        </mxCell>
        <mxCell id="H2MEBsb1DBV1hN3i80CE-14" value="M-C" style="shape=process;whiteSpace=wrap;html=1;backgroundOutline=1;" vertex="1" parent="1">
          <mxGeometry x="560" y="220" width="60" height="20" as="geometry" />
        </mxCell>
        <mxCell id="H2MEBsb1DBV1hN3i80CE-15" value="V" style="shape=process;whiteSpace=wrap;html=1;backgroundOutline=1;" vertex="1" parent="1">
          <mxGeometry x="700" y="220" width="60" height="20" as="geometry" />
        </mxCell>
        <mxCell id="H2MEBsb1DBV1hN3i80CE-16" value="" style="shape=flexArrow;endArrow=classic;startArrow=classic;html=1;rounded=0;entryX=0.061;entryY=0.657;entryDx=0;entryDy=0;entryPerimeter=0;exitX=0.015;exitY=0.623;exitDx=0;exitDy=0;exitPerimeter=0;" edge="1" parent="1" source="H2MEBsb1DBV1hN3i80CE-12">
          <mxGeometry width="100" height="100" relative="1" as="geometry">
            <mxPoint x="726.34" y="269.9955971479503" as="sourcePoint" />
            <mxPoint x="630.0000000000001" y="291.2900000000001" as="targetPoint" />
          </mxGeometry>
        </mxCell>
        <mxCell id="H2MEBsb1DBV1hN3i80CE-17" value="Como definir una ruta API" style="text;html=1;strokeColor=none;fillColor=#FF8000;align=center;verticalAlign=middle;whiteSpace=wrap;rounded=0;" vertex="1" parent="1">
          <mxGeometry x="550" y="500" width="90" height="50" as="geometry" />
        </mxCell>
      </root>
    </mxGraphModel>
  </diagram>
</mxfile>
